<?xml version="1.0" encoding="utf-8"?>
<!-- Generator: Adobe Illustrator 26.0.1, SVG Export Plug-In . SVG Version: 6.00 Build 0)  -->
<svg version="1.1" id="Layer_1" xmlns="http://www.w3.org/2000/svg" xmlns:xlink="http://www.w3.org/1999/xlink" x="0px" y="0px"
	 viewBox="0 0 1200 1200" style="enable-background:new 0 0 1200 1200;" xml:space="preserve">
<style type="text/css">
	.st0{fill:url(#SVGID_1_);}
	.st1{fill:none;stroke:#666666;stroke-width:10;stroke-miterlimit:10;}
	.st2{fill:url(#SVGID_00000163063846723271376810000005035859667512202400_);}
	.st3{fill:url(#SVGID_00000070822772168420161580000016261179537822175877_);}
	.st4{fill:url(#SVGID_00000021805706615060836810000000864264491730810276_);}
	.st5{fill:url(#SVGID_00000000911224508001516110000004459812742834515378_);}
	.st6{fill:#666666;stroke:#666666;stroke-width:10;stroke-miterlimit:10;}
</style>
<g>
	<g>
		
			<image style="overflow:visible;opacity:0.2;" width="2603" height="1263" xlink:href="D216839482444FE9.png"  transform="matrix(0.24 0 0 0.24 157.12 779)">
		</image>
		<g>
			<linearGradient id="SVGID_1_" gradientUnits="userSpaceOnUse" x1="462.3811" y1="1045.0994" x2="462.3811" y2="802.2102">
				<stop  offset="0" style="stop-color:#FFC107"/>
				<stop  offset="1" style="stop-color:#FFF350"/>
			</linearGradient>
			<path class="st0" d="M744.6,1045.1H322.2c-78.4,0-142-63.6-142-142V802.2h523.5c22.6,0,41,18.3,41,41V1045.1z"/>
		</g>
	</g>
	<g>
		
			<image style="overflow:visible;opacity:0.2;" width="1680" height="591" xlink:href="D216839482444FE8.png"  transform="matrix(0.24 0 0 0.24 152.8 125.72)">
		</image>
		<g>
			<path class="st1" d="M181,230.5L181,230.5L181,230.5c0-42.3,34.3-76.5,76.5-76.5h261.3"/>
		</g>
	</g>
	<g>
		
			<image style="overflow:visible;opacity:0.2;" width="405" height="858" xlink:href="D216839482444FF5.png"  transform="matrix(0.24 0 0 0.24 315.04 604.28)">
		</image>
		<g>
			<path class="st1" d="M338.1,632.5L338.1,632.5L338.1,632.5c17.6,0,31.9,14.3,31.9,31.9v108.8"/>
		</g>
	</g>
	<g>
		
			<image style="overflow:visible;opacity:0.2;" width="404" height="858" xlink:href="D216839482444FF6.png"  transform="matrix(0.24 0 0 0.24 387.52 604.28)">
		</image>
		<g>
			<path class="st1" d="M410.6,632.5L410.6,632.5L410.6,632.5c17.6,0,31.9,14.3,31.9,31.9v108.8"/>
		</g>
	</g>
	<g>
		
			<image style="overflow:visible;opacity:0.2;" width="405" height="858" xlink:href="D216839482444FF7.png"  transform="matrix(0.24 0 0 0.24 459.76 604.28)">
		</image>
		<g>
			<path class="st1" d="M483,632.5L483,632.5L483,632.5c17.6,0,31.9,14.3,31.9,31.9v108.8"/>
		</g>
	</g>
	<g>
		
			<image style="overflow:visible;opacity:0.2;" width="405" height="858" xlink:href="D216839482444FFC.png"  transform="matrix(0.24 0 0 0.24 532.24 604.28)">
		</image>
		<g>
			<path class="st1" d="M555.4,632.5L555.4,632.5L555.4,632.5c17.6,0,31.9,14.3,31.9,31.9v108.8"/>
		</g>
	</g>
	<g>
		
			<image style="overflow:visible;opacity:0.2;" width="2603" height="1270" xlink:href="D216839482444FFD.png"  transform="matrix(0.24 0 0 0.24 157.12 235.16)">
		</image>
		<g>
			
				<linearGradient id="SVGID_00000128456291726957301750000017388110102743796406_" gradientUnits="userSpaceOnUse" x1="744.6115" y1="380.575" x2="180.1507" y2="380.575">
				<stop  offset="0" style="stop-color:#FFC107"/>
				<stop  offset="1" style="stop-color:#FFF350"/>
			</linearGradient>
			<path style="fill:url(#SVGID_00000128456291726957301750000017388110102743796406_);" d="M637.9,258.3H180.2v0
				c0,135.1,109.5,244.6,244.6,244.6h249.8c38.7,0,70.1-31.4,70.1-70.1V365C744.6,306.1,696.8,258.3,637.9,258.3z M604.4,354.1
				c-13.2,0-23.9-10.7-23.9-23.9c0-13.2,10.7-23.9,23.9-23.9c13.2,0,23.9,10.7,23.9,23.9C628.3,343.3,617.6,354.1,604.4,354.1z"/>
		</g>
	</g>
	<g>
		
			<image style="overflow:visible;opacity:0.2;" width="1263" height="1270" xlink:href="D216839482444FFE.png"  transform="matrix(0.24 0 0 0.24 752.56 235.16)">
		</image>
		<g>
			
				<linearGradient id="SVGID_00000094610480947915467300000018028292241545929372_" gradientUnits="userSpaceOnUse" x1="996.8863" y1="524.5632" x2="753.1418" y2="280.8187">
				<stop  offset="0" style="stop-color:#FFC107"/>
				<stop  offset="1" style="stop-color:#FFF350"/>
			</linearGradient>
			<path style="fill:url(#SVGID_00000094610480947915467300000018028292241545929372_);" d="M1018.6,502.9H845.8
				c-38.7,0-70.1-31.4-70.1-70.1V258.3h0c134.1,0,242.9,84.8,242.9,218.9V502.9z"/>
		</g>
	</g>
	<g>
		
			<image style="overflow:visible;opacity:0.2;" width="1271" height="1263" xlink:href="D216839482444FFF.png"  transform="matrix(0.24 0 0 0.24 751.6 778.76)">
		</image>
		<g>
			
				<linearGradient id="SVGID_00000014592621981544635170000000672689400982838414_" gradientUnits="userSpaceOnUse" x1="954.2471" y1="980.3442" x2="795.7811" y2="821.8783">
				<stop  offset="0" style="stop-color:#FFC107"/>
				<stop  offset="1" style="stop-color:#FFF350"/>
			</linearGradient>
			<path style="fill:url(#SVGID_00000014592621981544635170000000672689400982838414_);" d="M774.8,1044.7V871.9
				c0-38.7,31.4-70.1,70.1-70.1h174.5v0c0,134.1-84.8,242.9-218.9,242.9H774.8z"/>
		</g>
	</g>
	<g>
		
			<image style="overflow:visible;opacity:0.2;" width="1270" height="1263" xlink:href="5D410476D3DF8BF3.png"  transform="matrix(0.24 0 0 0.24 752.32 507.08)">
		</image>
		<g>
			
				<linearGradient id="SVGID_00000106112094331767137500000003414889850328948617_" gradientUnits="userSpaceOnUse" x1="987.352" y1="791.9813" x2="828.5217" y2="516.8792">
				<stop  offset="0" style="stop-color:#FFC107"/>
				<stop  offset="1" style="stop-color:#FFF350"/>
			</linearGradient>
			<path style="fill:url(#SVGID_00000106112094331767137500000003414889850328948617_);" d="M1020,773.1H816.4
				c-22.6,0-41-18.3-41-41v-161c0-22.6,18.3-41,41-41H1020V773.1z"/>
		</g>
	</g>
	<circle class="st6" cx="605.2" cy="331" r="23.9"/>
</g>
</svg>
