<svg xmlns="http://www.w3.org/2000/svg" width="405.603" height="284.023" viewBox="0 0 405.603 284.023"><g transform="translate(1.19 1.19)"><path d="M49.3,433.926c-2.638,0-3.277-2.876-6.6-2.876-2.067,0-6.392,1.176-6.392,3.192h0l2.177,15.242H50.525l2.506-16.848C52.724,433.585,51.33,433.926,49.3,433.926Z" transform="translate(-21.345 -247.884)" fill="#ffe4ad"/><path d="M450.126,444.562c5.19-7.67,7.355-13.767,7.355-16.171,0-23.777-80.393-49.16-161.068-53.821C296.4,362.609,238.7,283,204.864,283c-24.066,0-40.574,15.34-40.574,50.707,0,44.775,17.658,82.635,42.828,110.856Z" transform="translate(-94.792 -162.919)" fill="#e0e0e0"/><path d="M778.41,359.416c3.273,0,5-31.357,5-34.817s-7.482-36.219-30.164-36.219c-8.552,0-14.628,8.923-14.628,20.078,0,15.429,21.037,26.892,24.288,30.364C768.511,344.792,771.485,359.416,778.41,359.416Z" transform="translate(-424.397 -166.007)" fill="#fd8369"/><path d="M831.515,355.924c-2.028,0-7.525-15.212-7.525-27.782,0-14.65,13.358-32.576,15.148-39.044,3.166-11.471,8.381-33.858,24.288-33.858,9.034,0,14.377,9.92,14.377,20.223,0,9.92-9.673,18.506-18.374,28.366-8.522,9.664-7.538,17.811-12.28,29.636C842.291,345.545,834.353,355.924,831.515,355.924Z" transform="translate(-473.39 -146.988)" fill="#ffd98e"/><path d="M840.772,370.823c-2.944-17.381,15.7-69.383,29.857-83.943" transform="translate(-482.844 -165.146)" fill="none" stroke="#fd8369" stroke-linecap="round" stroke-linejoin="round" stroke-width="2.38"/><path d="M783.75,317.51c2.851,2.352,19.46,30.036,20.7,43.378" transform="translate(-450.297 -182.724)" fill="none" stroke="#ffd98e" stroke-linecap="round" stroke-linejoin="round" stroke-width="2.38"/><path d="M813.046,476.31h22.78L824.436,555.5H801.346L789.96,476.31h22.775" transform="translate(-453.861 -273.859)" fill="#c9c9c9"/><path d="M367.107,243.63c0,36.168,11.079,35.993,11.079,41.247,0,10.325-5.16,9.119-5.16,9.119S319.878,288.814,367.107,243.63Z" transform="translate(-199.963 -140.325)"/><line y1="33.023" transform="translate(48.265)" fill="none" stroke="#c4c4c4" stroke-linecap="round" stroke-linejoin="round" stroke-width="2.38"/><line y1="33.023" transform="translate(262.779)" fill="none" stroke="#c4c4c4" stroke-linecap="round" stroke-linejoin="round" stroke-width="2.38"/><circle cx="7.286" cy="7.286" r="7.286" transform="translate(40.979 52.202)" fill="#ffe4ad"/><circle cx="7.286" cy="7.286" r="7.286" transform="translate(255.493 52.202)" fill="#ffe4ad"/><path d="M638.165,525.446c-2.774-4.832-103.118-35.746-114.682-36.219-21.731-3.682-36.036,8.185-41.3,18.536,20.236,4.547,44.315,11.2,50.447,13.725h1.5c.852-.047,1.819-.055,2.932-.026,7.631-.09,14-.268,17.432-.473,10.422,3.886,78.31,18.906,79.98,18S639.4,527.585,638.165,525.446Z" transform="translate(-277.227 -280.878)" fill="#6792ec"/><path d="M362.563,401.047c6.161.29,18.548,2.761,31.66,5.842,8-7.785,14.032-18.408,13.452-31.106-12.357-28.481-61.785-65.3-82.451-65.284-3.106,2.557-3.788,21.19-6.144,32.043-.852,3.98,3.226,15.485,9.374,28.519C342.54,381.741,356.052,393.991,362.563,401.047Z" transform="translate(-183.56 -178.701)" fill="#f6c244"/><path d="M841.4,582.15l8.808,2.263-2.71,8.867-8.731-1.572Z" transform="translate(-481.872 -334.6)" fill="#e49d75"/><path d="M352.9,297.647c-.162,2.062-.055,10.687.976,14.863C350.952,312.458,333.482,296.4,352.9,297.647Z" transform="translate(-197.848 -171.285)" fill="#e49d75"/><ellipse cx="15.446" cy="20.24" rx="15.446" ry="20.24" transform="translate(135.519 88.033)" fill="#e49d75"/><path d="M315.353,194.79c-20.138,0-28.123,29.15-28.123,45.167,0,14.355,5.39,18.2,7.849,19.375s8.663,1.393,12.621,2.352c5.071,1.231,7.823,5.885,12.51,5.885,3.639,0,5.782-3.532,5.782-6.392,0-11.586-19.384-21.305-19.384-38.545,3.716-1.278,17.624-11.407,17.624-15.438,0,2.736,7.116,10.167,8.318,10.7C333.079,216.146,330.169,194.79,315.353,194.79Z" transform="translate(-165.347 -112.296)"/><rect width="22.49" height="40.152" transform="translate(204.949 159.594) rotate(3.29)" fill="#e0e0e0"/><path d="M557.09,387.988l-15.37,11.867,2.305-40.088,15.37-11.867Z" transform="translate(-311.397 -200.165)" fill="#c9c9c9"/><line x2="22.52" y2="3.477" transform="translate(206.337 157.058)" fill="none" stroke="#d3d3d3" stroke-linecap="round" stroke-linejoin="round" stroke-width="2.38"/><line x1="10.947" y2="13.516" transform="translate(229.914 147.019)" fill="none" stroke="#d3d3d3" stroke-linecap="round" stroke-linejoin="round" stroke-width="2.38"/><line x1="12.988" y2="11.965" transform="translate(230.804 148.204)" fill="none" stroke="#d3d3d3" stroke-linecap="round" stroke-linejoin="round" stroke-width="2.38"/><path d="M737.35,572.883l4.329,6.362,6.153-3.792L744.18,569.3Z" transform="translate(-423.668 -327.225)" fill="#e49d75"/><path d="M76.858,78.69A27.922,27.922,0,0,0,48.94,106.608l55.845,0A27.923,27.923,0,0,0,76.858,78.69Z" transform="translate(-28.593 -45.667)" fill="#fd8369"/><path d="M580.288,78.69a27.918,27.918,0,0,0-27.918,27.923h55.82A27.923,27.923,0,0,0,580.288,78.69Z" transform="translate(-317.509 -45.667)" fill="#fd8369"/><line x2="85.579" transform="translate(0 202.451)" fill="none" stroke="#c4c4c4" stroke-linecap="round" stroke-linejoin="round" stroke-width="2.38"/><line y2="79.192" transform="translate(42.79 202.451)" fill="none" stroke="#c4c4c4" stroke-linecap="round" stroke-linejoin="round" stroke-width="2.38"/><rect width="19.49" height="10.644" transform="translate(45.806 190.955)" fill="none" stroke="#fd8369" stroke-linecap="round" stroke-linejoin="round" stroke-width="2.38"/><circle cx="4.022" cy="4.022" r="4.022" transform="translate(135.962 108.273)" fill="#e49d75"/><path d="M534.673,415.838l-5.233,1.291,2.305-40.084,5.233-1.3Z" transform="translate(-304.35 -216.148)" fill="#d3d3d3"/><path d="M744.65,585.567l3.179,8.791,26.645-6.762-1.014-5.143-21.638-1.543Z" transform="translate(-427.857 -333.888)"/><path d="M858.11,576.88l8.441,4.022,14.206-23.538-4.333-2.944-16.482,14.113Z" transform="translate(-492.972 -318.686)"/><path d="M542.41,365.56C521.8,370.247,486.194,408.17,468.6,435.9c12.753,2.693,28.123,6.575,39.777,9.843,17.73-13.8,30.68-35.793,32.6-38.418,4.841,9.856,39.236,49.982,41.758,49.982s6.626-1.79,8.241-4.836C589.524,443.874,553.335,364,542.41,365.56Z" transform="translate(-269.434 -210.287)" fill="#93b5fc"/><path d="M336.11,430.272c15.966-1.453,46.953-7.146,49.6-7.708,3.332-.7,6.357-11.1,3.43-17.261-1.01-1.815-2.131-1.862-2.983-1.662s-2.885,7.7-4.96,8.1-40.433,2.693-43.676,2.838c-.426-2.02-4.325-16.652-5.262-17.807S311,405.835,311,405.835a70.1,70.1,0,0,0,3.272,7.738C321.614,418.605,329.2,424.511,336.11,430.272Z" transform="translate(-178.988 -228.158)" fill="#e49d75"/><path d="M295.6,325.484c6.664-2.361,21.659,6.029,26.125,29.806-2.557,3.575-16.618,11.39-24.787,11.275C293.365,363.408,281.421,330.487,295.6,325.484Z" transform="translate(-166.266 -187.081)" fill="#fed36a"/><path d="M52.361,415.5l-3.724,25.059H36.6L33.02,415.5" transform="translate(-19.457 -238.96)" fill="none" stroke="#fd8369" stroke-linecap="round" stroke-linejoin="round" stroke-width="2.38"/></g></svg>