<svg xmlns="http://www.w3.org/2000/svg" width="325.79" height="274.67" viewBox="0 0 325.79 274.67"><g transform="translate(-129.23 -214.94)"><rect width="181.452" height="214.912" transform="translate(129.23 214.94)" fill="#f3f3f3"/><path d="M390.335,510.518l50.726-29.969-3.706-14.038H393.5v-4.239a1.173,1.173,0,0,0-1.173-1.173H381.1a1.173,1.173,0,0,0-1.173,1.173v4.239l7.225,44.007Z" transform="translate(-163.953 -160.984)" fill="#d0cbcb"/><rect width="61.664" height="43.664" rx="12.04" transform="translate(223.001 308.728)" fill="#dfdfdf"/><path d="M129.23,485.99h58.91v43.664H129.23" transform="translate(0 -177.262)" fill="none" stroke="#dfdfdf" stroke-miterlimit="10" stroke-width="6" stroke-dasharray="18"/><path d="M671.349,823.22c-5.3,0-50.079,56.578-50.079,64.19h48.851S689.5,872.9,692.339,867.742,671.349,823.22,671.349,823.22Z" transform="translate(-321.785 -397.804)" fill="#6792ec"/><path d="M818.169,791c.633,4.152,12.287,75.342,12.287,75.342H790.221S767.99,822.09,766,802.152C776.727,795.318,818.169,791,818.169,791Z" transform="translate(-416.436 -376.733)" fill="#93b5fc"/><path d="M769.916,539.2c26.758-.893,33.91,82.66,31.813,87.12-2.491,5.346-41.072,15.917-52.183,11.152C744,635.092,725.158,540.688,769.916,539.2Z" transform="translate(-399.995 -212.053)" fill="#fed385"/><path d="M770.507,539.2c26.758-.893,35.086,82.217,31.813,87.12s-47.425,14.882-52.169,11.152S725.749,540.688,770.507,539.2Z" transform="translate(-400.586 -212.053)" fill="#f6c244"/><path d="M621.887,555.169c-2.045,0-12.529,3-21.107,7.99-21.543-19.626-26.851-38.038-38.356-37.716-5.436,0-10.294.765-10.294,5.048s5.052,7.612,13.107,7.612c1.343,5.432,19.377,47.37,32.284,47.37,8.948,0,34.138-9.972,34.138-12.211S623.59,555.169,621.887,555.169Z" transform="translate(-276.569 -203.06)" fill="#de8e68"/><path d="M762.266,585c4.183,5.19-14.266,30.28-18.47,30.142s-18.924-18.225-17.522-23.412S755.934,577.148,762.266,585Z" transform="translate(-390.394 -240.043)" fill="#fed36a"/><path d="M812.312,483c0,.806.318,18.5,2.675,23.785,0,1.54-16.917,2.547-16.917-.384V493.522" transform="translate(-437.409 -175.306)" fill="#d37c59"/><ellipse cx="14" cy="21" rx="14" ry="21" transform="translate(347.23 277.81)" fill="#de8e68"/><path d="M780.174,416.858h-.346V406.823c-1.038-1.384-11.073-4.5-13.495-5.536s-6.574-2.422-9.343-6.574c-.633.952-2.125,5.706-2.519,9.671-1.038-1.038-2.671-2.751-2.671-8.287,0-10.035,10.035-15.917,18.685-15.917,13.841,0,21.8,14.187,21.8,20.415C792.284,409.592,786.056,416.858,780.174,416.858Z" transform="translate(-407.149 -108.064)"/><circle cx="3.72" cy="3.72" r="3.72" transform="translate(368.152 298.535)" fill="#de8e68"/><path d="M860.253,330.83c2.235,0,19.948,5.965,24.609,5.965s13.889-1.118,16.875-1.118c5.862,0,19.761,6.747,19.761,18.55,0,8.225-6.367,12.782-13.516,16.408-2.785,1.408-5.256,7.408-15.2,7.408-16.028,0-25.3-22.512-39.713-22.512-1.678,0-7.093.74-7.093,2.768s-3.46-1.01-3.46-1.962C842.534,348.249,847.465,330.83,860.253,330.83Z" transform="translate(-466.478 -75.79)"/><rect width="181.452" height="17.91" transform="translate(129.23 214.94)" fill="#dfdfdf"/></g></svg>