<svg xmlns="http://www.w3.org/2000/svg" width="321" height="310.914" viewBox="0 0 321 310.914"><g transform="translate(0 0.703)"><g transform="translate(0 0.29)"><path d="M0,.29H321V216.655H0Z" transform="translate(0 -0.29)" fill="#f3f3f3" fill-rule="evenodd"/><path d="M454.16,112.56H491.8" transform="translate(-272.317 -67.608)" fill="none" stroke="#fff" stroke-linecap="round" stroke-linejoin="round" stroke-width="12.98"/><path d="M454.16,143.29h33.513" transform="translate(-272.317 -86.034)" fill="none" stroke="#fff" stroke-linecap="round" stroke-linejoin="round" stroke-width="12.98"/><path d="M200.09,217.831V1.47" transform="translate(-119.975 -0.998)" fill="none" stroke="#dfdfdf" stroke-linecap="round" stroke-width="2.93"/><path d="M400.18,217.831V1.47" transform="translate(-239.95 -0.998)" fill="none" stroke="#dfdfdf" stroke-linecap="round" stroke-width="2.93"/><path d="M600.27,217.831V1.47" transform="translate(-359.925 -0.998)" fill="none" stroke="#dfdfdf" stroke-linecap="round" stroke-width="2.93"/><path d="M350.39,742.352l.709,8.32,7.3.176-1.353-8.809Z" transform="translate(-210.096 -445.048)" fill="#e49d75" fill-rule="evenodd"/><path d="M179.287,705.77,175.9,717.205l3.459,3.6L185.5,710.8Z" transform="translate(-105.471 -423.3)" fill="#e49d75" fill-rule="evenodd"/><path d="M348.862,758.8l-.132,6.166,19.123-.116a22.89,22.89,0,0,0,.036-3.023L356.51,758.71Z" transform="translate(-209.101 -455.043)" fill-rule="evenodd"/><path d="M169.434,729.44l-3.884,5.3,8.12,11.5,7.672.052-.1-3.884-3.075-1.361-2.727-6.763Z" transform="translate(-99.265 -437.493)" fill-rule="evenodd"/><path d="M367.05,146.61h37.357v37.357H367.05Z" transform="translate(-220.085 -88.024)" fill="#e0e0e0" fill-rule="evenodd"/><path d="M367.05,146.61h37.357v8.344H367.05Z" transform="translate(-220.085 -88.024)" fill="#a4a4a4" fill-rule="evenodd"/><path d="M259.549,214.008c1.946-.428,8.873-.244,10.727-1.237s24.736-18.138,27.039-20.472,5.149-4.36,7.207-6.9.068,4.5-1.73,5.882c-.208,1.882-.26,5.822-.26,5.822a3.431,3.431,0,0,0-2.719.685c-1.3,1.017-20.06,23.1-20.06,23.1S257.6,214.441,259.549,214.008Z" transform="translate(-155.554 -110.955)" fill="#e49d75" fill-rule="evenodd"/><path d="M195.3,422.355c-1.161,4.4-3.4,35.235,3.483,50.658-2.987,11.279-18.158,63.843-18.158,63.843l7.543,6.647,38.886-58.858S218.964,420.257,195.3,422.355Z" transform="translate(-108.307 -253.332)" fill="#93b5fc" fill-rule="evenodd"/><path d="M261.066,414.962c1.574,4.376,17.653,61.793,17.653,61.793l3.636,69.745-8.32.657L248.19,476.927c-3.155-3.576-23.2-51.567-24.1-57.725C228.03,415.014,259.493,410.581,261.066,414.962Z" transform="translate(-134.366 -247.845)" fill="#6792ec" fill-rule="evenodd"/><path d="M223.44,250.72c3.167,0,21.1,4.348,24.476,11.355,1.854,3.852,9.986,50.942,5.469,58.345s-35.635,7.087-41.705,1.506C208.265,318.795,207.164,250.7,223.44,250.72Z" transform="translate(-125.671 -150.449)" fill="#f6c244" fill-rule="evenodd"/><path d="M0,.29H321V29.255H0Z" transform="translate(0 -0.29)" fill="#e0e0e0" fill-rule="evenodd"/><path d="M37.15,115H86.975" transform="translate(-22.275 -69.071)" fill="none" stroke="#fff" stroke-linecap="round" stroke-linejoin="round" stroke-width="12.98"/><path d="M234.26,230.7h6.871v13.333c-2.47,1.966-6.871,0-6.871,0Z" transform="translate(-140.464 -138.445)" fill="#e49d75" fill-rule="evenodd"/><path d="M212.31,178.073c0-8.308,5.642-15.043,12.6-15.043s12.6,6.735,12.6,15.043-5.642,15.047-12.6,15.047S212.31,186.381,212.31,178.073Z" transform="translate(-127.302 -97.87)" fill="#e49d75" fill-rule="evenodd"/><path d="M196.876,156.846c4.036-.092,9.165,2.474,9.165,4.256,0,3.083-4.781,10.074-8.34,12.941,1,2.3,1.91,3.824,1.91,5.778s-3.039,9.609-3.039,14.815c0,4.084.913,6.863.913,10.25,0,9.253-6.038,14.855-14.771,14.855s-14.6-9.469-14.634-17.157c-.044-9.425,10.41-20.993,12.945-28.1C183.159,168.486,187.2,156.846,196.876,156.846Z" transform="translate(-100.782 -94.161)" fill-rule="evenodd"/><path d="M233.34,197.815a3.151,3.151,0,1,1,.922,2.231A3.155,3.155,0,0,1,233.34,197.815Z" transform="translate(-139.912 -116.835)" fill="#e49d75" fill-rule="evenodd"/><path d="M316.505,247.3c3.539.841,18.038,3.271,20.82,2.4s31.451-28.208,33.685-30.23,6.719-4.885,7.259-8.384,0-6.494-4.861-8.248c.092,2.258.18,5.782.084,5.257-.821-2.723-.917-5.81-2.4-5.774-.8,2.546.328,7.347-1.642,10.562-2.262,2.458-32.308,22.174-35.463,23.171-4.116,0-14.67-3.6-14.67-3.6S312.97,246.455,316.505,247.3Z" transform="translate(-189.136 -121.428)" fill="#e49d75" fill-rule="evenodd"/><path d="M259.013,270.389c2.45-10.29,23.948-4.849,27.563-1.962,1.265,3.92-.725,15.547-3.884,17.705C277.947,286.821,256.4,281.336,259.013,270.389Z" transform="translate(-155.174 -158.643)" fill="#fed36a" fill-rule="evenodd"/><path d="M37.15,169.71H74.787" transform="translate(-22.275 -101.875)" fill="none" stroke="#fff" stroke-linecap="round" stroke-linejoin="round" stroke-width="12.98"/><path d="M37.15,263.7h20.4" transform="translate(-22.275 -158.232)" fill="none" stroke="#fff" stroke-linecap="round" stroke-linejoin="round" stroke-width="12.98"/><path d="M37.15,299.16H74.787" transform="translate(-22.275 -179.494)" fill="none" stroke="#fff" stroke-linecap="round" stroke-linejoin="round" stroke-width="12.98"/><path d="M37.15,329.89H70.663" transform="translate(-22.275 -197.92)" fill="none" stroke="#fff" stroke-linecap="round" stroke-linejoin="round" stroke-width="12.98"/><path d="M634.81,110.64h49.825" transform="translate(-380.636 -66.457)" fill="none" stroke="#fff" stroke-linecap="round" stroke-linejoin="round" stroke-width="12.98"/><path d="M634.81,144.73h34.834" transform="translate(-380.636 -86.897)" fill="none" stroke="#fff" stroke-linecap="round" stroke-linejoin="round" stroke-width="12.98"/><path d="M634.81,181H681.6" transform="translate(-380.636 -108.645)" fill="none" stroke="#fff" stroke-linecap="round" stroke-linejoin="round" stroke-width="12.98"/><path d="M634.81,214h23.583" transform="translate(-380.636 -128.432)" fill="none" stroke="#fff" stroke-linecap="round" stroke-linejoin="round" stroke-width="12.98"/><path d="M392.611,185.962h-.048l-2.506,1.325-.376-1.473,3.131-1.674h1.65v14.318h-1.85Z" transform="translate(-233.654 -110.528)" fill="#a4a4a4"/><path d="M424.363,184.18v1.277L418.125,198.5h-2l6.21-12.668v-.044h-7v-1.6Z" transform="translate(-249.034 -110.552)" fill="#a4a4a4"/></g></g></svg>