<svg xmlns="http://www.w3.org/2000/svg" width="258.651" height="261.75" viewBox="0 0 258.651 261.75"><g transform="translate(-141 -142.5)" opacity="0.995"><g transform="translate(141 142.5)"><rect width="35.382" height="48.554" transform="translate(223.269)" fill="#dfdfdf"/><rect width="35.382" height="3.357" transform="translate(223.269)" fill="#f3f3f3"/><rect width="86.26" height="27.634" transform="translate(0 19.241)" fill="#f3f3f3"/><circle cx="9.039" cy="9.039" r="9.039" transform="translate(5.036 23.76)" fill="#dfdfdf"/><rect width="50.62" height="3.099" transform="translate(29.313 24.277)" fill="#dfdfdf"/><rect width="17.045" height="3.099" transform="translate(29.313 31.508)" fill="#dfdfdf"/><path d="M188.6,255.42l-7.461,7.461-3.086-3.089" transform="translate(-168.481 -226.257)" fill="none" stroke="#f3f3f3" stroke-miterlimit="10" stroke-width="6"/><rect width="86.26" height="27.634" transform="translate(0 53.073)" fill="#f3f3f3"/><circle cx="9.039" cy="9.039" r="9.039" transform="translate(5.036 57.593)" fill="#dfdfdf"/><rect width="50.62" height="3.099" transform="translate(29.313 58.109)" fill="#dfdfdf"/><rect width="17.045" height="3.099" transform="translate(29.313 65.341)" fill="#dfdfdf"/><path d="M188.6,386.42l-7.461,7.461-3.086-3.089" transform="translate(-168.481 -323.424)" fill="none" stroke="#f3f3f3" stroke-miterlimit="10" stroke-width="6"/><rect width="86.26" height="27.634" transform="translate(0 86.906)" fill="#f3f3f3"/><circle cx="9.039" cy="9.039" r="9.039" transform="translate(5.036 91.425)" fill="#dfdfdf"/><rect width="50.62" height="3.099" transform="translate(29.313 91.942)" fill="#dfdfdf"/><rect width="17.045" height="3.099" transform="translate(29.313 99.173)" fill="#dfdfdf"/><path d="M188.6,517.42l-7.461,7.459-3.086-3.086" transform="translate(-168.481 -420.592)" fill="none" stroke="#f3f3f3" stroke-miterlimit="10" stroke-width="6"/><rect width="35.382" height="48.554" transform="translate(216.296 8.006)" fill="#f3f3f3"/><rect width="35.382" height="3.357" transform="translate(216.296 8.006)" fill="#dfdfdf"/><rect width="27.892" height="2.324" transform="translate(220.17 17.304)" fill="#dfdfdf"/><rect width="27.892" height="2.324" transform="translate(220.17 21.952)" fill="#dfdfdf"/><rect width="27.892" height="2.324" transform="translate(220.17 26.601)" fill="#dfdfdf"/><path d="M752.5,401.314c0-2.583,4.649-6.715,12.655-6.715,9.814,0,23.244,20.919,38.223,20.919,10.331,0,24.535-8.523,24.535-24.018" transform="translate(-594.572 -327.192)" fill="none" stroke="#dfdfdf" stroke-miterlimit="10" stroke-width="11" stroke-dasharray="22"/></g><g transform="translate(218.957 143.146)"><path d="M445.795,527c-.517,1.808-8.781,45.454,5.424,86,2.324.517,2.066-5.94,2.066-5.94L450.7,551.535l1.291-20.919Z" transform="translate(-442.915 -428.343)" fill="#de8e68"/><path d="M507.574,897.876H482.523S474,809.808,474,808c1.55,1.55,1.291,2.066,7.748,3.874C485.622,816.006,513,884.7,513,884.7Z" transform="translate(-465.955 -636.771)" fill="#6893ec"/><path d="M472.024,398.654c12.069,3.453,2.539,40.318-1.929,43.406s-25.413-5.6-27.1-9.514S454.938,393.765,472.024,398.654Z" transform="translate(-442.851 -332.796)" fill="#fcc486"/><path d="M496.893,362c38.481,0,39.256,110.537,33.833,115.185s-60.95,9.039-65.857,0S455.054,362,496.893,362Z" transform="translate(-456.823 -305.957)" fill="#f7c344"/><path d="M637.2,387.569c10.072-7.49,33.574,22.469,33.316,27.892S650.63,432.248,646.5,431.215,622.939,398.173,637.2,387.569Z" transform="translate(-583.185 -324.036)" fill="#ffd46a"/><path d="M616.215,503c9.556,15.754,12.138,36.673,12.138,40.289,0,9.814-4.907,14.721-8.006,14.721-12.4,0-53.2-31.508-56.043-34.091s5.424-10.331,6.715-9.039,16.012,10.589,37.448,19.886c-3.1-3.874-12.138-15.5-12.4-19.111S616.215,503,616.215,503Z" transform="translate(-532.499 -410.542)" fill="#de8e68"/><rect width="16.317" height="27.97" transform="translate(10.111 87.35) rotate(-8.58)" fill="#333"/><ellipse cx="6.973" cy="9.685" rx="6.973" ry="9.685" transform="translate(17.737 106.568) rotate(-60)" fill="#de8e68"/><path d="M585.43,322.4c0,3.357-13.43,3.616-13.43,0V302h13.43Z" transform="translate(-538.646 -261.453)" fill="#d37c59"/><ellipse cx="13.301" cy="23.631" rx="13.301" ry="23.631" transform="translate(23.282 5.424)" fill="#de8e68"/><circle cx="3.487" cy="3.487" r="3.487" transform="translate(45.493 28.926)" fill="#de8e68"/><path d="M596.605,147.066c-10.072,0-18.337,7.231-29.184,7.231-7.748,0-15.238-9.3-26.085-9.3C527.391,145,523,152.49,523,157.655c0,4.132,2.583,8.781,3.357,8.781a21.09,21.09,0,0,1,2.066-6.457c.517,1.808,11.364,14.463,20.919,14.463v.072a3.487,3.487,0,1,1,0,5.8v7.562h2.583c3.357,0,4.907-1.291,10.072-1.291,9.039,0,21.694,11.105,37.19,11.105,16.787,0,23.76-12.655,23.76-26.859C622.948,151.973,605.128,147.066,596.605,147.066Z" transform="translate(-502.301 -145)"/><path d="M562.02,808v89.876H529.737L503.88,811.815C512.95,813.424,547.3,814.715,562.02,808Z" transform="translate(-488.119 -636.771)" fill="#94b6fc"/></g></g></svg>