<svg xmlns="http://www.w3.org/2000/svg" width="245.5" height="227.554" viewBox="0 0 245.5 227.554"><g transform="translate(0.013 4.419)"><g transform="translate(-0.013 -4.419)"><path d="M173.154,13.561c28.681,4.062,64.664,19.494,71.2,42.225,6.537,22.791-16.361,52.825-38.159,76.855-21.791,24.086-42.462,42.17-67.787,54.353-25.321,12.132-55.241,18.45-75.379,7.007C42.944,182.64,32.713,153.548,20.8,127.928,8.844,102.251-4.819,79.99,1.652,64.384,8.137,48.838,34.757,39.944,54.78,34.35S88.17,26.4,105.6,21.63C122.978,16.8,144.414,9.5,173.154,13.561Z" transform="translate(0.013 -6.529)" fill="#f2f2f2"/><path d="M223.946,35.51c-4.6,0-6.036,7.185-6.036,10.057,0,4.873,5.173,25,10.057,25s10.06-19.842,10.06-22.126S231.991,35.51,223.946,35.51Z" transform="translate(-142.049 -21.611)" fill="#de8e68"/><rect width="88.092" height="154.66" rx="25.35" transform="translate(94.424 0) rotate(11.1)" fill="#3966b4"/><path d="M376.2,16.613l-.874,4.452a4.2,4.2,0,0,1-4.919,3.3l-29.8-5.848a4.2,4.2,0,0,1-3.3-4.919l.891-4.452" transform="translate(-219.826 -4.427)" fill="#1d3e85"/><path d="M0,0,94.212,18.488" transform="translate(60.955 136.102)" fill="none" stroke="#1d3e85" stroke-width="3"/><path d="M3.492,0A3.492,3.492,0,1,1,0,3.492,3.492,3.492,0,0,1,3.492,0Z" transform="translate(104.659 149.282)" fill="#22448c"/><path d="M200.73,147a9.7,9.7,0,0,0-10.06,9.482c0,16.089,9.2,29.307,13.228,29.307,8.619,0,11.78-4.6,11.78-7.759C215.671,175.715,214.522,147,200.73,147Z" transform="translate(-124.292 -94.29)" fill="#de8e68"/><path d="M172.283,246.223c1.723,1.723,14.941,15.8,14.941,25.572,0,6.614-1.438,11.78-13.507,11.78-5.747,0-21.837-22.7-21.837-31.894,0-5.173,3.161-17.242,12.069-17.242,2.586,0,8.334,4.6,9.193,5.747a32.188,32.188,0,0,0,2.813,2.586c-.362,1.869-2.36,11.7-2.36,11.7" transform="translate(-99.005 -151.292)" fill="#de8e68"/><path d="M210.147,267.91a79.054,79.054,0,0,0-6.677-7.46" transform="translate(-132.636 -168.247)" fill="none" stroke="#22448c" stroke-linecap="round" stroke-miterlimit="10" stroke-width="3"/><path d="M190.311,296.092c-.86,2.3-1.445,24.517,1.142,36.871-1.741,8.908-8.623,37.944-8.623,37.944H245.2l6.322-25.286s38.487-33.638,42.222-39.667,12.5-41.233,12.375-44.537c-.1-2.3-41.954-37.644-43.1-39.082s-21.36,18.8,12.26,42.086c-.289,2.872-.272,15.557-.272,15.557s-23.386,8.038-25.76,9.771-6.917,13.949-7.738,16.688C238.329,305.818,190.311,296.092,190.311,296.092Z" transform="translate(-119.181 -143.353)" fill="#de8e68"/><path d="M337.31,474.882c.783-2.994,4.581-13.747,5.524-16.312" transform="translate(-219.885 -297.4)" fill="#1d3e85" stroke="#22448c" stroke-linecap="round" stroke-miterlimit="10" stroke-width="3"/></g></g></svg>