<svg xmlns="http://www.w3.org/2000/svg" width="279.929" height="337.211" viewBox="0 0 279.929 337.211"><g transform="translate(0.002 11.253)"><g transform="translate(-0.002 -11.253)"><path d="M44.139,95.319C16.7,112.576-2.728,143.574.31,172.793,3.417,201.944,29,229.376,37.79,263.953s.86,76.414,15.537,97.7C67.933,383,105.3,383.928,135.755,374.54c30.539-9.32,54.2-28.951,80.512-46.535,26.308-17.52,55.212-33.053,62.009-55.464,6.8-22.342-8.528-51.577-25.189-73.372-16.593-21.882-34.637-36.292-53.276-56.451S161.867,96.711,134.5,85.543C107.067,74.368,71.567,78,44.139,95.319Z" transform="translate(0.002 -43.009)" fill="#6893ec" opacity="0"/><line y1="103.354" x2="5.797" transform="translate(119.748 141.351)" fill="none" stroke="#fed385" stroke-linecap="round" stroke-miterlimit="10" stroke-width="5"/><line y1="92.759" x2="69.969" transform="translate(119.748 151.946)" fill="none" stroke="#fed385" stroke-linecap="round" stroke-miterlimit="10" stroke-width="5"/><line y1="161.929" x2="74.367" transform="translate(119.748 82.777)" fill="none" stroke="#fed385" stroke-linecap="round" stroke-miterlimit="10" stroke-width="5"/><ellipse cx="40.382" cy="31.47" rx="40.382" ry="31.47" transform="translate(166.724 83.374) rotate(-70.01)" fill="#fd8369"/><ellipse cx="40.382" cy="31.47" rx="40.382" ry="31.47" transform="translate(95.939 148.254) rotate(-86.01)" fill="#d37c59"/><ellipse cx="44.78" cy="37.783" rx="44.78" ry="37.783" transform="translate(156.531 137.481) rotate(-64.05)" fill="#74d5de"/><ellipse cx="38.527" cy="31.906" rx="38.527" ry="31.906" transform="translate(113.94 76.178) rotate(-81.35)" fill="#74d5de"/><ellipse cx="37.36" cy="27.724" rx="37.36" ry="27.724" transform="translate(128.643 122.798) rotate(-73.12)" fill="#fed385"/><path d="M305.615,360.617l3.6,8.452a1.539,1.539,0,0,1-1.6,2.127l-9.112-1.124a1.535,1.535,0,0,1-1.04-2.451l5.53-7.329a1.535,1.535,0,0,1,2.623.324Z" transform="translate(-178.342 -211.382)" fill="#d37c59"/><line x1="13.194" y1="148.335" transform="translate(106.554 96.371)" fill="none" stroke="#fed385" stroke-linecap="round" stroke-miterlimit="10" stroke-width="5"/><line y1="117.548" x2="35.184" transform="translate(119.748 127.157)" fill="none" stroke="#fed385" stroke-linecap="round" stroke-miterlimit="10" stroke-width="5"/><path d="M376.147,305.266l2.1,8.944a1.535,1.535,0,0,1-1.943,1.815l-8.8-2.667a1.535,1.535,0,0,1-.6-2.591l6.7-6.273a1.535,1.535,0,0,1,2.547.772Z" transform="translate(-219.911 -178.002)" fill="#fed385"/><path d="M463.428,362.428l-.64,9.156a1.535,1.535,0,0,1-2.4,1.168l-7.6-5.134a1.535,1.535,0,0,1,.188-2.655l8.248-4.022a1.535,1.535,0,0,1,2.2,1.487Z" transform="translate(-271.348 -212.038)" fill="#74d5de"/><ellipse cx="37.783" cy="44.78" rx="37.783" ry="44.78" transform="matrix(0.997, -0.08, 0.08, 0.997, 62.101, 14.587)" fill="#fd8369"/><path d="M259.149,231.223l5.2,7.557a1.539,1.539,0,0,1-1.139,2.4l-9.136.756a1.539,1.539,0,0,1-1.511-2.191l3.938-8.292a1.535,1.535,0,0,1,2.651-.228Z" transform="translate(-151.491 -133.881)" fill="#fd8369"/><rect width="89.269" height="79.965" transform="translate(170.416 335.753) rotate(-168.76)" fill="#de8e68"/><path d="M249.778,616.006l87.553,17.4-3.514-27.2-87.557-17.4Z" transform="translate(-147.798 -348.891)" fill="#d37c59"/><rect width="51.109" height="79.965" transform="translate(82.868 318.346) rotate(-168.76)" fill="#d37c59"/><path d="M137.634,597.707,87.6,587.763l13.406-23.833,50.03,9.948Z" transform="translate(-52.574 -333.958)" fill="#de8e68"/><rect width="20.719" height="23.59" transform="translate(136.8 329.071) rotate(-168.76)" fill="#d37c59"/><rect width="31.202" height="17.22" transform="translate(125.138 294.081) rotate(-168.76)" fill="#fed385"/><rect width="7.053" height="12.51" transform="translate(122.857 291.061) rotate(-168.76)" fill="#fd8369"/><rect width="17.624" height="2.383" transform="translate(116.434 279.528) rotate(-168.76)" fill="#fd8369"/><rect width="17.624" height="2.383" transform="translate(115.635 283.527) rotate(-168.76)" fill="#fd8369"/></g></g></svg>